<?xml version="1.0" encoding="UTF-8" standalone="no"?>

<svg xmlns="http://www.w3.org/2000/svg"
     width="10in" height="10.0444in"
     viewBox="0 0 900 904">
  <path id="Selection"
        fill="000000" stroke="black" stroke-width="10"
        d="M 444.00,6.32
           C 451.76,5.26 454.05,6.09 461.50,7.49
             465.26,8.19 469.14,8.59 472.75,9.91
             490.69,16.50 504.34,33.96 517.75,46.95
             517.75,46.95 651.51,180.70 651.51,180.70
             651.51,180.70 751.54,280.71 751.54,280.71
             751.54,280.71 831.55,360.75 831.55,360.75
             831.55,360.75 867.75,396.99 867.75,396.99
             880.14,409.12 890.82,418.85 893.64,437.00
             895.21,447.21 895.80,464.82 892.35,474.50
             886.62,490.49 874.42,501.57 862.75,513.25
             862.75,513.25 817.75,558.25 817.75,558.25
             817.75,558.25 565.25,810.75 565.25,810.75
             565.25,810.75 514.00,862.00 514.00,862.00
             496.42,879.57 488.50,891.79 462.75,896.47
             458.00,897.34 452.55,898.41 447.75,898.14
             422.35,896.70 412.44,887.94 395.25,870.75
             395.25,870.75 372.75,848.25 372.75,848.25
             372.75,848.25 241.50,717.00 241.50,717.00
             241.50,717.00 66.50,542.00 66.50,542.00
             66.50,542.00 32.75,508.25 32.75,508.25
             26.07,501.57 17.32,493.96 12.90,485.75
             6.56,473.99 5.10,461.39 5.25,448.25
             5.59,419.44 21.41,407.09 40.25,388.25
             40.25,388.25 96.50,332.00 96.50,332.00
             96.50,332.00 330.25,98.25 330.25,98.25
             330.25,98.25 379.00,49.50 379.00,49.50
             392.02,36.47 407.21,18.72 424.00,11.32
             428.76,9.22 438.47,7.51 444.00,6.32 Z
           M 447.75,19.86
           C 442.30,20.64 436.69,20.61 431.50,22.59
             415.76,28.56 402.19,45.06 390.25,57.00
             390.25,57.00 340.25,107.00 340.25,107.00
             340.25,107.00 101.50,345.75 101.50,345.75
             101.50,345.75 51.50,395.75 51.50,395.75
             30.86,416.39 12.71,430.97 18.15,463.25
             20.84,479.14 30.76,487.51 41.50,498.25
             41.50,498.25 82.80,539.61 82.80,539.61
             82.80,539.61 162.02,618.97 162.02,618.97
             162.02,618.97 250.25,707.00 250.25,707.00
             250.25,707.00 384.05,840.86 384.05,840.86
             402.24,858.59 420.20,884.17 447.75,884.50
             454.07,884.57 460.37,884.70 466.50,882.85
             482.12,878.10 495.12,862.12 506.50,850.75
             506.50,850.75 557.75,799.50 557.75,799.50
             557.75,799.50 800.25,557.00 800.25,557.00
             800.25,557.00 851.50,505.75 851.50,505.75
             867.84,489.41 881.22,479.34 882.64,454.50
             882.90,449.94 882.21,447.57 881.69,443.25
             879.15,422.26 866.70,414.66 852.76,400.74
             852.76,400.74 822.75,370.54 822.75,370.54
             822.75,370.54 810.19,357.37 810.19,357.37
             810.19,357.37 736.50,284.45 736.50,284.45
             736.50,284.45 727.54,274.71 727.54,274.71
             727.54,274.71 717.75,265.74 717.75,265.74
             717.75,265.74 647.80,195.76 647.80,195.76
             647.80,195.76 515.26,63.25 515.26,63.25
             515.26,63.25 499.11,47.04 499.11,47.04
             484.27,31.92 470.85,18.21 447.75,19.86 Z
           M 427.75,153.51
           C 427.75,153.51 449.00,153.51 449.00,153.51
             449.00,153.51 464.00,154.39 464.00,154.39
             464.00,154.39 494.00,156.15 494.00,156.15
             494.00,156.15 504.00,158.66 504.00,158.66
             504.00,158.66 515.25,160.65 515.25,160.65
             544.10,168.16 569.16,179.17 592.75,197.61
             592.75,197.61 605.20,207.21 605.20,207.21
             605.20,207.21 614.11,217.00 614.11,217.00
             614.11,217.00 625.86,229.50 625.86,229.50
             641.04,248.59 653.72,276.74 658.22,300.75
             658.22,300.75 659.52,312.00 659.52,312.00
             660.50,319.22 665.06,338.65 655.22,341.01
             644.16,343.69 645.15,327.17 644.10,320.75
             644.10,320.75 642.17,307.00 642.17,307.00
             640.42,297.37 630.80,269.04 626.07,260.75
             626.07,260.75 614.89,244.50 614.89,244.50
             597.81,221.40 569.39,199.31 542.75,188.26
             542.75,188.26 515.25,179.61 515.25,179.61
             515.25,179.61 505.25,176.41 505.25,176.41
             505.25,176.41 496.50,175.11 496.50,175.11
             485.35,172.81 466.37,169.51 455.25,169.50
             455.25,169.50 439.00,169.50 439.00,169.50
             439.00,169.50 424.00,170.64 424.00,170.64
             424.00,170.64 402.75,172.37 402.75,172.37
             390.92,174.06 358.67,183.47 347.75,188.30
             347.75,188.30 335.25,194.80 335.25,194.80
             316.15,204.57 302.77,216.00 287.90,231.17
             287.90,231.17 279.75,239.55 279.75,239.55
             279.75,239.55 270.86,253.25 270.86,253.25
             270.86,253.25 264.25,263.25 264.25,263.25
             260.41,270.21 251.17,296.47 249.57,304.50
             249.57,304.50 247.54,324.50 247.54,324.50
             246.90,331.16 246.24,333.60 246.55,340.75
             247.09,353.11 249.46,365.06 252.34,377.00
             255.26,389.22 259.09,400.96 265.27,412.00
             265.27,412.00 273.95,424.50 273.95,424.50
             276.69,428.42 278.39,431.74 281.65,435.40
             300.65,456.65 330.69,475.35 357.75,484.41
             357.75,484.41 384.00,491.16 384.00,491.16
             384.00,491.16 412.75,498.04 412.75,498.04
             412.75,498.04 424.00,498.80 424.00,498.80
             424.00,498.80 439.00,501.79 439.00,501.79
             439.00,501.79 461.50,504.60 461.50,504.60
             461.50,504.60 474.00,506.79 474.00,506.79
             474.00,506.79 486.50,507.59 486.50,507.59
             486.50,507.59 495.25,510.02 495.25,510.02
             518.24,516.11 541.36,525.27 541.50,553.25
             541.50,553.25 541.50,558.25 541.50,558.25
             541.40,565.40 540.61,566.90 537.44,573.25
             535.62,576.89 534.04,580.11 531.24,583.14
             516.92,598.64 485.44,603.21 465.25,603.25
             465.25,603.25 449.00,603.25 449.00,603.25
             449.00,603.25 436.50,601.95 436.50,601.95
             436.50,601.95 424.00,601.95 424.00,601.95
             408.66,600.30 389.55,595.16 376.50,586.89
             371.57,583.76 365.94,579.15 362.66,574.29
             357.67,566.91 357.40,559.22 351.37,556.67
             348.79,555.57 344.35,555.75 341.50,555.75
             341.50,555.75 247.75,555.75 247.75,555.75
             244.01,555.75 238.67,555.39 235.65,557.92
             234.25,559.09 233.64,560.27 233.35,562.05
             233.35,562.05 236.71,585.75 236.71,585.75
             241.87,614.04 254.94,640.40 275.25,660.75
             284.90,670.41 293.94,678.66 305.26,686.35
             305.26,686.35 320.25,694.59 320.25,694.59
             320.25,694.59 336.50,703.01 336.50,703.01
             336.50,703.01 367.75,712.74 367.75,712.74
             367.75,712.74 390.25,718.86 390.25,718.86
             390.25,718.86 400.25,720.02 400.25,720.02
             423.17,723.20 445.84,724.76 469.00,724.50
             485.22,724.30 515.81,720.15 531.50,715.85
             531.50,715.85 550.25,709.05 550.25,709.05
             550.25,709.05 571.50,701.50 571.50,701.50
             571.50,701.50 582.75,694.26 582.75,694.26
             582.75,694.26 591.50,689.35 591.50,689.35
             603.44,681.76 619.64,667.84 628.59,657.00
             650.76,630.17 663.20,592.81 663.99,558.25
             663.99,558.25 662.69,543.25 662.69,543.25
             662.69,543.25 662.69,530.75 662.69,530.75
             660.37,512.82 651.37,486.31 642.31,470.75
             639.96,466.70 636.89,463.19 634.01,459.50
             619.71,441.16 604.50,427.56 584.00,416.35
             557.64,401.92 524.97,391.09 495.25,386.30
             495.25,386.30 472.75,384.12 472.75,384.12
             472.75,384.12 459.00,381.12 459.00,381.12
             459.00,381.12 445.25,380.29 445.25,380.29
             440.02,379.29 438.25,377.64 431.50,377.11
             412.12,375.60 377.64,369.40 370.67,348.25
             363.65,326.92 376.55,306.99 396.50,299.39
             396.50,299.39 414.00,293.85 414.00,293.85
             414.00,293.85 446.50,290.77 446.50,290.77
             446.50,290.77 457.75,291.89 457.75,291.89
             457.75,291.89 479.00,294.10 479.00,294.10
             479.00,294.10 490.25,297.66 490.25,297.66
             504.89,302.01 519.44,313.57 521.82,329.50
             521.89,331.22 522.31,334.02 521.82,335.70
             520.91,341.46 514.94,342.90 510.39,339.82
             504.56,335.89 504.97,328.05 496.45,321.26
             485.96,312.92 469.59,309.56 456.50,309.50
             456.50,309.50 441.50,308.30 441.50,308.30
             429.20,307.82 414.00,311.79 402.75,316.65
             394.51,320.21 387.80,324.72 386.75,334.50
             384.67,353.92 414.02,356.54 427.75,359.49
             427.75,359.49 440.25,361.15 440.25,361.15
             440.25,361.15 481.50,367.90 481.50,367.90
             481.50,367.90 501.50,370.07 501.50,370.07
             501.50,370.07 512.75,372.67 512.75,372.67
             512.75,372.67 522.75,373.91 522.75,373.91
             522.75,373.91 555.25,384.41 555.25,384.41
             555.25,384.41 574.00,391.14 574.00,391.14
             606.29,406.02 636.32,429.02 655.31,459.50
             660.12,467.22 664.80,478.45 668.12,487.00
             668.12,487.00 674.46,504.50 674.46,504.50
             674.46,504.50 675.99,514.50 675.99,514.50
             679.57,537.21 679.26,548.06 679.00,570.75
             678.91,577.76 677.99,580.41 677.04,587.00
             677.04,587.00 675.47,599.50 675.47,599.50
             670.75,621.71 658.55,646.70 644.60,664.50
             627.61,686.19 600.37,707.60 575.25,719.11
             575.25,719.11 547.75,728.99 547.75,728.99
             547.75,728.99 526.50,735.16 526.50,735.16
             526.50,735.16 509.00,737.35 509.00,737.35
             509.00,737.35 479.00,740.75 479.00,740.75
             444.54,741.15 426.92,740.21 392.75,736.10
             392.75,736.10 382.75,735.11 382.75,735.11
             367.32,731.94 352.45,726.92 337.75,721.32
             325.45,716.64 308.76,709.65 297.75,702.56
             284.17,693.84 269.35,679.77 258.32,667.90
             243.97,652.44 233.62,630.44 226.76,610.75
             223.35,601.00 218.25,583.39 217.80,573.25
             217.80,573.25 216.50,549.50 216.50,549.50
             216.56,546.09 216.50,542.80 219.39,540.42
             222.46,537.89 227.71,538.25 231.50,538.25
             231.50,538.25 357.75,538.25 357.75,538.25
             360.59,538.25 364.96,537.99 367.40,539.52
             372.01,542.42 372.90,555.42 375.34,560.75
             378.17,566.92 382.10,569.76 387.75,573.06
             400.71,580.61 423.95,585.72 439.00,585.75
             439.00,585.75 457.75,586.60 457.75,586.60
             457.75,586.60 471.50,585.75 471.50,585.75
             486.45,585.72 505.00,581.69 516.45,571.60
             523.45,565.41 528.01,554.77 523.61,545.75
             519.37,537.06 511.17,533.92 502.75,531.07
             494.59,528.30 486.27,525.44 477.75,523.84
             477.75,523.84 464.00,522.00 464.00,522.00
             464.00,522.00 429.00,517.87 429.00,517.87
             429.00,517.87 414.00,514.86 414.00,514.86
             414.00,514.86 402.75,514.02 402.75,514.02
             402.75,514.02 380.25,508.12 380.25,508.12
             357.56,502.61 350.66,501.07 329.00,491.14
             329.00,491.14 306.50,479.86 306.50,479.86
             298.96,475.37 290.51,468.16 284.05,462.21
             259.82,439.89 248.95,423.12 238.59,392.00
             235.02,381.31 231.64,367.01 231.45,355.75
             231.45,355.75 231.45,339.50 231.45,339.50
             231.45,339.50 230.47,330.75 230.47,330.75
             230.47,330.75 231.65,320.75 231.65,320.75
             231.65,320.75 231.65,308.25 231.65,308.25
             236.45,272.94 254.26,238.56 279.05,213.26
             284.00,208.21 289.66,203.95 295.25,199.65
             324.82,176.89 357.24,162.84 394.00,156.32
             394.00,156.32 427.75,153.51 427.75,153.51 Z" />
</svg>
